<?xml version="1.0" ?><svg viewBox="0 0 24 24" xmlns="http://www.w3.org/2000/svg"><title/><g id="agreement"><path d="M20,0H4A1,1,0,0,0,3,1V23a1,1,0,0,0,1,1H20a1,1,0,0,0,1-1V1A1,1,0,0,0,20,0ZM19,22H5V2H19Z"/><path d="M8,7h8a1,1,0,0,0,0-2H8A1,1,0,0,0,8,7Z"/><path d="M8,10h8a1,1,0,0,0,0-2H8A1,1,0,0,0,8,10Z"/><path d="M8,13h8a1,1,0,0,0,0-2H8A1,1,0,0,0,8,13Z"/><path d="M16,18H14.41c-.75-.76-1.29-1.53-2.25-.57C10.69,15.24,10.67,15,9.94,15s-.73.35-2.83,4.55A1,1,0,0,0,8,21c.79,0,.85-.46,2.12-3,1,1.48,1.16,1.94,1.78,2a1,1,0,0,0,.81-.29l.29-.3c.72.73.45.59,3,.59A1,1,0,0,0,16,18Z"/></g></svg>