<svg width="52" height="52" viewBox="0 0 52 52" fill="none" xmlns="http://www.w3.org/2000/svg">
<g clip-path="url(#clip0_146_1354)">
<path d="M25.9997 47.6666C14.0332 47.6666 4.33301 37.9664 4.33301 25.9999C4.33301 14.0334 14.0332 4.33325 25.9997 4.33325C37.9662 4.33325 47.6663 14.0334 47.6663 25.9999C47.6663 37.9664 37.9662 47.6666 25.9997 47.6666ZM21.038 42.6117C18.9004 38.0776 17.6621 33.172 17.3915 28.1666H8.80067C9.22228 31.5009 10.6032 34.6409 12.7756 37.2053C14.948 39.7696 17.8184 41.6478 21.038 42.6117ZM21.7313 28.1666C22.0585 33.4511 23.5687 38.4149 25.9997 42.7959C28.4964 38.2991 29.9548 33.3005 30.268 28.1666H21.7313ZM43.1987 28.1666H34.6078C34.3373 33.172 33.0989 38.0776 30.9613 42.6117C34.181 41.6478 37.0514 39.7696 39.2238 37.2053C41.3962 34.6409 42.7771 31.5009 43.1987 28.1666ZM8.80067 23.8333H17.3915C17.6621 18.8278 18.9004 13.9222 21.038 9.38809C17.8184 10.352 14.948 12.2302 12.7756 14.7946C10.6032 17.3589 9.22228 20.499 8.80067 23.8333ZM21.7335 23.8333H30.2658C29.9533 18.6995 28.4956 13.7009 25.9997 9.20392C23.503 13.7007 22.0445 18.6994 21.7313 23.8333H21.7335ZM30.9613 9.38809C33.0989 13.9222 34.3373 18.8278 34.6078 23.8333H43.1987C42.7771 20.499 41.3962 17.3589 39.2238 14.7946C37.0514 12.2302 34.181 10.352 30.9613 9.38809Z" fill="#09121F"/>
</g>
<defs>
<clipPath id="clip0_146_1354">
<rect width="52" height="52" fill="white"/>
</clipPath>
</defs>
</svg>
