<?xml version="1.0" ?><svg viewBox="0 0 24 24" xmlns="http://www.w3.org/2000/svg"><title/><g id="balance"><path d="M20.44,7H21a1,1,0,0,0,0-2H18.41C16.3,5,16.89,3,13,3V2a1,1,0,0,0-2,0V3C7.38,3,7.57,5,5.66,5H3A1,1,0,0,0,3,7h.56C.65,14.76,1,13.42,1,15a4,4,0,0,0,8,0c0-1.58.36-.22-2.59-8.08,2.28-.4,2.3-1.92,4-1.92H11V21H8a1,1,0,0,0,0,2h8a1,1,0,0,0,0-2H13V5h.59c1.81,0,1.67,1.48,4,1.92C14.61,14.85,15,13.42,15,15a4,4,0,0,0,8,0C23,13.42,23.36,14.77,20.44,7ZM5,17a2,2,0,0,1-2-2H7A2,2,0,0,1,5,17ZM3.44,13,5,8.85,6.56,13ZM19,8.85,20.56,13H17.44ZM19,17a2,2,0,0,1-2-2h4A2,2,0,0,1,19,17Z"/></g></svg>