<svg width="197" height="24" viewBox="0 0 197 24" fill="none" xmlns="http://www.w3.org/2000/svg">
<path d="M50.2618 16.1697H48.4976C48.0643 20.1003 45.4027 22.2049 42.122 22.2049C37.7891 22.2049 35.4988 18.9552 35.4988 12.7962C35.4988 6.88481 37.4177 3.32561 41.7816 3.32561C45.1551 3.32561 47.2287 5.64683 48.0643 9.45363H49.8594V2.02573H48.1881L47.9715 5.02784C46.424 2.76852 44.2266 1.71623 41.4102 1.71623C35.1274 1.71623 30.9492 6.35867 30.9492 12.8581C30.9492 19.5741 35.4679 23.9999 41.6268 23.9999C46.3621 23.9999 49.7047 20.9978 50.2618 16.1697Z" fill="white"/>
<path d="M69.5881 15.8911C69.5881 10.7226 65.9979 7.7514 61.4793 7.7514C56.9297 7.7514 53.3705 10.7226 53.3705 15.8911C53.3705 21.0288 56.9297 23.9999 61.4793 23.9999C65.9979 23.9999 69.5881 21.0288 69.5881 15.8911ZM57.6415 15.8292C57.6415 11.3725 58.9414 9.11319 61.4793 9.11319C64.0172 9.11319 65.317 11.3725 65.317 15.8292C65.317 20.3479 64.0172 22.6382 61.4793 22.6382C58.9414 22.6382 57.6415 20.3479 57.6415 15.8292Z" fill="white"/>
<path d="M79.8469 22.3287H78.7946C78.2685 22.3287 77.959 22.0192 77.959 21.3383V13.1676C78.9803 11.3106 80.4969 9.85598 82.3848 9.85598C84.0561 9.85598 84.9226 10.8464 84.9226 12.6105V21.3383C84.9226 22.0192 84.6131 22.3287 84.087 22.3287H83.0347V23.6904H91.3602V22.3287H89.7817C89.2556 22.3287 88.9461 22.0192 88.9461 21.3692V13.1366C88.9461 9.67028 87.151 7.7514 83.8704 7.7514C81.3325 7.7514 79.4136 9.11319 77.9899 11.0011H77.8352V8.0609H71.5215V9.42268H73.0689C73.626 9.42268 73.9046 9.73218 73.9046 10.4131V21.3383C73.9046 22.0192 73.626 22.3287 73.0689 22.3287H71.5215V23.6904H79.8469V22.3287Z" fill="white"/>
<path d="M107.313 18.9552C107.313 12.4867 96.8213 14.746 96.8213 11.1868C96.8213 10.0417 97.7498 9.26793 99.5449 9.26793C102.114 9.26793 104.094 10.7226 104.837 12.6105H106.416V8.0609H104.93L104.683 9.88693C103.321 8.49419 101.618 7.7514 99.483 7.7514C96.0476 7.7514 93.6644 9.57743 93.6644 12.3629C93.6644 18.5219 104.033 15.984 104.033 20.1003C104.033 21.6787 102.733 22.4215 100.845 22.4215C98.0283 22.4215 96.2333 20.8121 95.3357 18.6457H93.7263V23.6904H95.2429L95.5524 21.6168C97.0689 23.1643 98.864 23.9999 101.123 23.9999C104.621 23.9999 107.313 22.2358 107.313 18.9552Z" fill="white"/>
<path d="M126.192 8.0609H119.568V9.42268H121.332C121.859 9.42268 122.137 9.73218 122.137 10.444V19.1099C121.24 20.6264 119.847 21.8954 118.145 21.8954C116.597 21.8954 115.761 20.9359 115.761 18.8933V8.0609H109.324V9.42268H110.871C111.429 9.42268 111.707 9.73218 111.707 10.4131V19.0171C111.707 22.4215 113.44 23.9999 116.288 23.9999C118.764 23.9999 120.652 22.6382 122.106 20.874H122.261V23.6904H128.606V22.3287H127.027C126.501 22.3287 126.192 22.0192 126.192 21.3383V8.0609Z" fill="white"/>
<path d="M136.408 1.40674H129.97V2.76852H131.517C132.075 2.76852 132.353 3.07802 132.353 3.75891V21.3383C132.353 22.0192 132.075 22.3287 131.517 22.3287H129.97V23.6904H138.822V22.3287H137.243C136.717 22.3287 136.408 22.0192 136.408 21.3383V1.40674Z" fill="white"/>
<path d="M151.142 20.0384V18.3981H149.904V19.9455C149.904 21.6168 149.13 22.2049 148.078 22.2049C146.995 22.2049 146.407 21.6478 146.407 19.8527V9.42268H151.235V8.0609H146.407V3.66606H144.24L143.9 5.39924C143.497 7.53476 142.755 8.0609 141.238 8.0609H140.062V9.42268H142.352V19.1099C142.352 22.7001 144.054 23.9999 146.995 23.9999C149.811 23.9999 151.142 22.4834 151.142 20.0384Z" fill="white"/>
<path d="M170.216 23.9999C174.394 23.9999 178.417 22.4834 178.417 16.0459V4.74929C178.417 3.85176 178.851 3.44941 179.439 3.44941H181.017V2.02573H173.899V3.44941H175.477C176.065 3.44941 176.498 3.85176 176.498 4.74929V15.8602C176.498 20.3788 174.703 21.9882 171.144 21.9882C167.461 21.9882 166.068 20.2241 166.068 15.8602V4.74929C166.068 3.85176 166.502 3.44941 167.121 3.44941H168.699V2.02573H159.259V3.44941H160.838C161.457 3.44941 161.89 3.85176 161.89 4.74929V16.3244C161.89 22.143 165.511 23.9999 170.216 23.9999Z" fill="white"/>
<path d="M196.414 18.9552C196.414 12.4867 185.922 14.746 185.922 11.1868C185.922 10.0417 186.851 9.26793 188.646 9.26793C191.215 9.26793 193.195 10.7226 193.938 12.6105H195.517V8.0609H194.031L193.783 9.88693C192.422 8.49419 190.719 7.7514 188.584 7.7514C185.149 7.7514 182.765 9.57743 182.765 12.3629C182.765 18.5219 193.134 15.984 193.134 20.1003C193.134 21.6787 191.834 22.4215 189.946 22.4215C187.129 22.4215 185.334 20.8121 184.437 18.6457H182.827V23.6904H184.344L184.653 21.6168C186.17 23.1643 187.965 23.9999 190.224 23.9999C193.722 23.9999 196.414 22.2358 196.414 18.9552Z" fill="white"/>
<rect width="18.4802" height="3.26122" rx="1.63061" fill="#F7B762"/>
<circle cx="9.24011" cy="14.6757" r="9.24011" fill="#F7B762"/>
</svg>
