<svg width="52" height="52" viewBox="0 0 52 52" fill="none" xmlns="http://www.w3.org/2000/svg">
<g clip-path="url(#clip0_146_1360)">
<path d="M6.84844 9.68295C9.36191 7.16902 12.7331 5.69863 16.2856 5.56682C19.838 5.43501 23.3089 6.65153 26.0018 8.97228C28.6922 6.6554 32.1585 5.44025 35.7067 5.5701C39.2549 5.69995 42.6231 7.16522 45.1371 9.67256C47.651 12.1799 49.1251 15.5443 49.2642 19.0921C49.4033 22.6399 48.1973 26.1094 45.8874 28.8059L29.0633 45.6843C28.2903 46.4575 27.2536 46.91 26.1611 46.951C25.0685 46.992 24.0008 46.6184 23.1721 45.9053L22.9338 45.6864L6.11177 28.8059C3.80316 26.1118 2.59653 22.6455 2.7331 19.1001C2.86968 15.5547 4.33941 12.1915 6.84844 9.68295ZM9.9121 12.7466C8.1403 14.5189 7.11895 16.9054 7.06005 19.4108C7.00115 21.9162 7.90921 24.348 9.59577 26.2016L9.9121 26.5353L25.9996 42.6228L37.4894 31.1308L29.8303 23.4716L27.5336 25.7683C26.9301 26.3721 26.2136 26.851 25.425 27.1779C24.6364 27.5048 23.7911 27.6731 22.9375 27.6733C21.2134 27.6737 19.5598 26.9892 18.3404 25.7704C17.1211 24.5516 16.4358 22.8984 16.4354 21.1743C16.435 19.4503 17.1195 17.7967 18.3383 16.5773L22.8926 12.0208C21.0801 10.5743 18.8115 9.82094 16.4938 9.89599C14.176 9.97103 11.9609 10.8695 10.2458 12.4303L9.9121 12.7466ZM28.2984 18.8739C28.7047 18.4678 29.2557 18.2396 29.8303 18.2396C30.4048 18.2396 30.9558 18.4678 31.3621 18.8739L40.5531 28.0649L42.0871 26.5353C43.8886 24.7351 44.9142 22.3014 44.9446 19.7548C44.975 17.2082 44.0077 14.7508 42.2497 12.9081C40.4916 11.0655 38.0824 9.98383 35.5372 9.89453C32.9919 9.80522 30.5128 10.7154 28.6299 12.4303L28.2984 12.7466L21.4041 19.6409C21.0286 20.0162 20.8039 20.5164 20.7727 21.0464C20.7416 21.5764 20.9061 22.0994 21.2351 22.5161L21.4041 22.7046C21.7794 23.0802 22.2795 23.3048 22.8095 23.336C23.3396 23.3671 23.8626 23.2026 24.2793 22.8736L24.4678 22.7046L28.2984 18.8739Z" fill="#09121F"/>
</g>
<defs>
<clipPath id="clip0_146_1360">
<rect width="52" height="52" fill="white"/>
</clipPath>
</defs>
</svg>
